<svg width="352" height="357" viewBox="0 0 352 357" fill="none" xmlns="http://www.w3.org/2000/svg">
<path d="M176.307 149.2L216.924 219.55H135.691L176.307 149.2Z" fill="url(#paint0_linear_36_100)"/>
<path d="M176.307 202.8L135.69 132.45H216.924L176.307 202.8Z" fill="url(#paint1_linear_36_100)"/>
<path d="M23.1572 170.5L30.735 183.625H15.5795L23.1572 170.5Z" fill="url(#paint2_linear_36_100)"/>
<path d="M23.1572 180.5L15.5795 167.375H30.7349L23.1572 180.5Z" fill="url(#paint3_linear_36_100)"/>
<path d="M329.157 170.5L336.735 183.625H321.58L329.157 170.5Z" fill="url(#paint4_linear_36_100)"/>
<path d="M329.157 180.5L321.579 167.375H336.735L329.157 180.5Z" fill="url(#paint5_linear_36_100)"/>
<circle cx="175.907" cy="175.5" r="174" stroke="#74B5FF" stroke-width="3"/>
<circle cx="175.907" cy="175.5" r="131" stroke="#74B5FF" stroke-width="3"/>
<path d="M30.0077 113.327L41.0915 123.004L39.1166 127.401L30.6612 125.175L37.5104 130.977L35.5356 135.373L21.6328 131.972L23.3701 128.104L32.5891 131.067L24.9516 124.583L26.7135 120.661L36.0746 123.112L28.2704 117.194L30.0077 113.327Z" fill="#74B5FF"/>
<path d="M47.5173 89.2422L49.2729 90.7282L51.9234 87.0916L54.198 89.0168L51.5475 92.6534L53.4862 94.2944L56.4901 90.173L58.8868 92.2016L53.574 99.491L42.8117 90.3815L48.1245 83.0921L50.5212 85.1208L47.5173 89.2422Z" fill="#74B5FF"/>
<path d="M84.8748 61.3205L80.9433 64.4097L81.6345 66.7842L78.3949 69.3296L74.5353 54.4758L78.0894 51.6832L90.0166 60.1981L86.7613 62.7559L84.8748 61.3205ZM82.4231 59.4413L78.6726 56.6036L80.0485 61.3071L82.4231 59.4413Z" fill="#74B5FF"/>
<path d="M111.983 46.1526L107.437 42.6085L107.06 42.7946L109.097 47.5793L105.582 49.3161L100.061 36.3422L105.601 33.604C106.617 33.1018 107.556 32.8605 108.418 32.88C109.275 32.8873 110.018 33.1212 110.648 33.582C111.273 34.0304 111.753 34.6473 112.087 35.4325C112.463 36.3158 112.555 37.213 112.364 38.1241C112.18 39.017 111.694 39.829 110.905 40.5602L115.91 44.212L111.983 46.1526ZM106.011 40.3286L107.75 39.469C108.228 39.2327 108.537 38.939 108.677 38.5877C108.817 38.2364 108.793 37.84 108.605 37.3983C108.427 36.9812 108.164 36.7181 107.813 36.6091C107.47 36.4818 107.065 36.5334 106.599 36.7638L104.86 37.6234L106.011 40.3286Z" fill="#74B5FF"/>
<path d="M133.455 25.6019L133.995 27.8374L138.328 26.6204L139.028 29.5169L134.696 30.7339L135.293 33.2027L140.203 31.8234L140.941 34.8754L132.258 37.3148L128.942 23.6101L137.626 21.1706L138.365 24.2226L133.455 25.6019Z" fill="#74B5FF"/>
<path d="M180.636 15.9632L180.621 19.0831L176.861 19.0629L176.81 30.0428L172.89 30.0216L172.941 19.0418L169.221 19.0217L169.236 15.9017L180.636 15.9632Z" fill="#74B5FF"/>
<path d="M212.456 19.9763L209.914 33.8453L206.08 33.0292L207.101 27.4619L202.425 26.4668L201.405 32.0341L197.571 31.218L200.113 17.349L203.947 18.1651L202.991 23.3783L207.667 24.3734L208.622 19.1602L212.456 19.9763Z" fill="#74B5FF"/>
<path d="M234.422 30.2623L233.633 32.4227L237.775 34.18L236.753 36.9791L232.61 35.2218L231.739 37.6076L236.434 39.5992L235.357 42.5486L227.053 39.0262L231.89 25.7821L240.194 29.3045L239.117 32.2539L234.422 30.2623Z" fill="#74B5FF"/>
<path d="M272.411 57.0556C272.949 57.7265 273.224 58.4754 273.234 59.3024C273.263 60.1267 273.046 60.8734 272.584 61.5426C271.902 62.5299 271.045 63.0446 270.014 63.0867C268.982 63.1288 267.884 62.6826 266.72 61.748L261.275 57.3798L269.29 45.7793L274.563 50.0098C275.686 50.911 276.383 51.8793 276.653 52.9149C276.934 53.9588 276.745 54.9579 276.086 55.9123C275.616 56.5924 275.05 57.0251 274.389 57.2105C273.745 57.3933 273.086 57.3416 272.411 57.0556ZM269.165 52.8398L270.709 54.0789C271.478 54.6964 272.094 54.6705 272.557 54.0014C273.034 53.3103 272.888 52.656 272.119 52.0385L270.574 50.7994L269.165 52.8398ZM267.907 58.6601C268.677 59.2775 269.297 59.2462 269.767 58.5661C270.009 58.215 270.091 57.8628 270.012 57.5095C269.943 57.1644 269.721 56.8417 269.347 56.5413L267.584 55.127L266.129 57.2332L267.907 58.6601Z" fill="#74B5FF"/>
<path d="M293.759 72.2369L292.145 73.8758L295.108 77.2631L293.017 79.3866L290.055 75.9993L288.272 77.8093L291.63 81.6482L289.427 83.8857L283.489 77.096L293.381 67.0486L299.319 73.8383L297.116 76.0758L293.759 72.2369Z" fill="#74B5FF"/>
<path d="M302.113 101.612C301.254 100.215 300.862 98.8438 300.939 97.4971C301.027 96.1426 301.641 95.0086 302.781 94.0952L304.972 97.6547C304.592 97.9756 304.376 98.3099 304.325 98.6575C304.273 99.005 304.352 99.3491 304.562 99.6898C304.751 99.9963 304.975 100.196 305.235 100.288C305.512 100.384 305.781 100.339 306.042 100.152C306.378 99.912 306.537 99.5613 306.518 99.1002C306.5 98.6391 306.378 97.9581 306.151 97.0572C305.918 96.0954 305.765 95.289 305.693 94.6379C305.638 93.9904 305.721 93.3261 305.942 92.6448C306.18 91.9671 306.663 91.3685 307.39 90.8489C308.127 90.3215 308.875 90.0648 309.634 90.0786C310.403 90.0846 311.133 90.3313 311.823 90.8187C312.514 91.306 313.125 91.9812 313.656 92.8441C314.516 94.2406 314.886 95.5782 314.767 96.8568C314.666 98.139 314.07 99.2118 312.976 100.075L310.743 96.4475C311.083 96.188 311.274 95.8883 311.314 95.5485C311.362 95.2201 311.284 94.8912 311.082 94.5619C310.928 94.3122 310.732 94.1582 310.493 94.1001C310.254 94.0419 310.004 94.1059 309.744 94.292C309.527 94.4471 309.39 94.668 309.332 94.9546C309.292 95.2449 309.293 95.5632 309.334 95.9096C309.386 96.2483 309.483 96.7352 309.624 97.3702C309.843 98.3093 309.978 99.1121 310.029 99.7787C310.098 100.449 310.019 101.119 309.791 101.789C309.58 102.462 309.139 103.04 308.467 103.52C307.783 104.009 307.059 104.265 306.293 104.29C305.534 104.326 304.787 104.115 304.053 103.659C303.326 103.214 302.68 102.532 302.113 101.612Z" fill="#74B5FF"/>
<path d="M330.231 126.168L327.399 127.479L326.007 123.986L316.043 128.599L314.591 124.958L324.555 120.345L323.178 116.889L326.009 115.578L330.231 126.168Z" fill="#74B5FF"/>
<path d="M25.6102 212.044L26.5052 216.331L23.5601 216.903L21.8641 208.778L35.7059 206.092L36.5069 209.929L25.6102 212.044Z" fill="#74B5FF"/>
<path d="M38.167 228.537L35.9884 229.274L37.5281 233.503L34.7054 234.458L33.1657 230.23L30.7598 231.044L32.5047 235.836L29.5305 236.843L26.4443 228.367L39.8001 223.847L42.8862 232.322L39.912 233.329L38.167 228.537Z" fill="#74B5FF"/>
<path d="M51.8874 251.261L49.1129 252.688L47.2924 249.398L37.5283 254.421L35.6303 250.991L45.3945 245.969L43.5934 242.714L46.3679 241.287L51.8874 251.261Z" fill="#74B5FF"/>
<path d="M49.6814 273.748C48.664 272.462 48.1401 271.177 48.1097 269.892C48.09 268.6 48.6409 267.492 49.7621 266.569L52.3553 269.847C51.9827 270.171 51.7836 270.499 51.7581 270.832C51.7327 271.165 51.844 271.488 52.0922 271.802C52.3155 272.084 52.5673 272.263 52.8476 272.338C53.1469 272.416 53.4254 272.36 53.6832 272.17C54.0162 271.926 54.1541 271.584 54.0969 271.147C54.0396 270.709 53.8549 270.068 53.5429 269.222C53.2192 268.319 52.9923 267.56 52.8622 266.944C52.7512 266.331 52.7835 265.695 52.9592 265.037C53.154 264.381 53.6112 263.788 54.331 263.259C55.0615 262.722 55.8251 262.442 56.622 262.418C57.4296 262.387 58.2159 262.586 58.9807 263.016C59.7456 263.446 60.4423 264.059 61.071 264.853C62.0884 266.14 62.5875 267.393 62.5683 268.615C62.568 269.839 62.03 270.888 60.9542 271.762L58.3114 268.42C58.6469 268.157 58.822 267.863 58.8367 267.538C58.8597 267.223 58.7512 266.914 58.5113 266.611C58.3294 266.381 58.1106 266.244 57.8552 266.2C57.5997 266.157 57.3431 266.23 57.0853 266.419C56.8704 266.577 56.7445 266.794 56.7074 267.069C56.6894 267.347 56.7164 267.65 56.7885 267.977C56.8713 268.297 57.0129 268.755 57.2132 269.352C57.5204 270.234 57.7282 270.991 57.8368 271.622C57.9645 272.256 57.9363 272.897 57.7522 273.545C57.5872 274.196 57.1717 274.766 56.5057 275.255C55.8289 275.753 55.0896 276.032 54.2878 276.092C53.4943 276.163 52.6936 275.999 51.8858 275.601C51.0862 275.213 50.3514 274.595 49.6814 273.748Z" fill="#74B5FF"/>
<path d="M95.2729 297.434L83.8739 306.613L79.9493 303.814L83.6283 295.833L76.7576 301.539L72.833 298.741L78.63 285.567L82.0824 288.029L77.5505 296.63L85.2253 290.27L88.7265 292.766L84.6667 301.605L91.8206 294.972L95.2729 297.434Z" fill="#74B5FF"/>
<path d="M107.837 320.727C106.626 320.203 105.641 319.444 104.884 318.449C104.132 317.441 103.687 316.312 103.549 315.062C103.428 313.804 103.66 312.547 104.245 311.29C104.83 310.032 105.646 309.035 106.695 308.298C107.761 307.553 108.932 307.123 110.206 307.006C111.481 306.889 112.724 307.092 113.935 307.616C115.159 308.145 116.143 308.905 116.888 309.895C117.646 310.89 118.084 312.016 118.205 313.274C118.332 314.519 118.102 315.77 117.518 317.028C116.933 318.285 116.113 319.288 115.059 320.038C114.011 320.775 112.846 321.208 111.566 321.337C110.292 321.454 109.049 321.251 107.837 320.727ZM109.372 317.427C110.29 317.824 111.15 317.84 111.952 317.475C112.766 317.115 113.403 316.44 113.864 315.448C114.337 314.433 114.439 313.518 114.17 312.705C113.919 311.885 113.335 311.277 112.417 310.88C111.487 310.478 110.621 310.459 109.819 310.824C109.023 311.177 108.389 311.861 107.916 312.877C107.45 313.88 107.342 314.792 107.592 315.612C107.849 316.42 108.442 317.025 109.372 317.427Z" fill="#74B5FF"/>
<path d="M135.787 330.496L134.353 324.81L133.945 324.712L132.654 329.75L128.841 328.842L132.34 315.183L138.352 316.614C139.455 316.877 140.339 317.293 141.005 317.863C141.674 318.42 142.117 319.08 142.335 319.844C142.555 320.596 142.559 321.385 142.347 322.211C142.109 323.141 141.64 323.9 140.939 324.487C140.254 325.064 139.381 325.383 138.319 325.446L140.048 331.51L135.787 330.496ZM134.61 322.116L136.497 322.566C137.016 322.689 137.437 322.659 137.759 322.475C138.081 322.292 138.302 321.968 138.421 321.503C138.534 321.063 138.485 320.689 138.276 320.378C138.082 320.058 137.733 319.838 137.227 319.718L135.34 319.268L134.61 322.116Z" fill="#74B5FF"/>
<path d="M163.066 334.946L159.086 328.495L158.655 334.66L154.743 334.406L155.726 320.34L159.638 320.594L159.214 326.659L164.009 320.878L168.519 321.171L162.873 327.659L167.796 335.254L163.066 334.946Z" fill="#74B5FF"/>
<path d="M203.081 318.599L203.672 321.662L199.971 322.326L202.051 333.107L198.192 333.799L196.113 323.018L192.451 323.674L191.86 320.611L203.081 318.599Z" fill="#74B5FF"/>
<path d="M226.234 327.162C224.993 327.611 223.741 327.737 222.478 327.542C221.21 327.334 220.07 326.832 219.06 326.035C218.057 325.221 217.304 324.168 216.801 322.876C216.299 321.583 216.15 320.319 216.356 319.082C216.569 317.829 217.085 316.728 217.903 315.78C218.722 314.832 219.751 314.134 220.993 313.685C222.247 313.232 223.499 313.105 224.749 313.305C226.013 313.501 227.146 314.005 228.149 314.819C229.147 315.62 229.897 316.667 230.4 317.96C230.902 319.252 231.053 320.523 230.853 321.772C230.647 323.008 230.138 324.107 229.324 325.067C228.506 326.015 227.476 326.713 226.234 327.162ZM224.915 323.769C225.855 323.429 226.477 322.858 226.779 322.054C227.094 321.245 227.053 320.332 226.657 319.313C226.251 318.269 225.656 317.548 224.872 317.151C224.096 316.737 223.238 316.7 222.298 317.04C221.345 317.385 220.717 317.959 220.415 318.763C220.108 319.554 220.157 320.472 220.563 321.516C220.964 322.547 221.553 323.27 222.329 323.684C223.1 324.085 223.962 324.114 224.915 323.769Z" fill="#74B5FF"/>
<path d="M249.688 306.046C249.293 305.845 248.87 305.761 248.418 305.795C247.978 305.822 247.528 305.97 247.068 306.24C246.217 306.74 245.715 307.405 245.563 308.237C245.422 309.061 245.64 309.93 246.217 310.843C246.865 311.869 247.618 312.5 248.477 312.738C249.341 312.957 250.273 312.773 251.273 312.185C252.457 311.49 252.971 310.47 252.815 309.124L249.417 311.119L247.911 308.735L254.223 305.029L256.253 308.241C256.387 309.028 256.37 309.849 256.202 310.705C256.045 311.555 255.69 312.389 255.136 313.209C254.575 314.018 253.794 314.716 252.794 315.303C251.575 316.019 250.334 316.4 249.071 316.446C247.812 316.474 246.635 316.184 245.541 315.575C244.451 314.948 243.532 314.042 242.785 312.859C242.044 311.686 241.638 310.495 241.567 309.285C241.501 308.057 241.773 306.916 242.384 305.861C242.987 304.796 243.898 303.906 245.117 303.19C246.646 302.292 248.139 301.91 249.595 302.044C251.051 302.178 252.295 302.8 253.327 303.909L249.688 306.046Z" fill="#74B5FF"/>
<path d="M267.247 292.237L268.782 293.949L272.239 291.068L274.228 293.286L270.772 296.168L272.468 298.058L276.385 294.792L278.482 297.13L271.554 302.906L262.139 292.41L269.067 286.634L271.164 288.971L267.247 292.237Z" fill="#74B5FF"/>
<path d="M284.076 271.507L286.488 273.487L283.999 276.305L292.486 283.272L289.891 286.21L281.404 279.243L278.942 282.031L276.53 280.052L284.076 271.507Z" fill="#74B5FF"/>
<path d="M297.985 251.873L310.228 258.867L308.176 262.207L303.261 259.399L300.758 263.471L305.673 266.279L303.62 269.619L291.377 262.624L293.43 259.285L298.032 261.914L300.535 257.841L295.933 255.212L297.985 251.873Z" fill="#74B5FF"/>
<path d="M308.24 238.42L310.392 239.233L312.086 235.064L314.874 236.117L313.179 240.286L315.555 241.184L317.476 236.459L320.413 237.569L317.017 245.925L303.827 240.942L307.223 232.585L310.16 233.695L308.24 238.42Z" fill="#74B5FF"/>
<path d="M326.177 218.889L320.467 220.54L320.373 220.95L325.46 222.028L324.588 225.85L310.795 222.925L312.17 216.9C312.422 215.795 312.831 214.9 313.398 214.216C313.951 213.53 314.611 213.063 315.378 212.817C316.132 212.568 316.927 212.532 317.762 212.709C318.701 212.908 319.47 213.344 320.068 214.016C320.657 214.673 320.989 215.527 321.063 216.578L327.151 214.619L326.177 218.889ZM317.752 220.394L318.183 218.502C318.302 217.982 318.267 217.566 318.079 217.253C317.89 216.941 317.561 216.735 317.092 216.635C316.648 216.541 316.271 216.604 315.961 216.825C315.641 217.029 315.423 217.385 315.307 217.892L314.876 219.784L317.752 220.394Z" fill="#74B5FF"/>
<defs>
<linearGradient id="paint0_linear_36_100" x1="176.307" y1="149.2" x2="176.307" y2="243" gradientUnits="userSpaceOnUse">
<stop stop-color="#FFAA74"/>
<stop offset="1" stop-color="#2C3DB2"/>
</linearGradient>
<linearGradient id="paint1_linear_36_100" x1="176.307" y1="109" x2="176.307" y2="202.8" gradientUnits="userSpaceOnUse">
<stop stop-color="#886FFA"/>
<stop offset="1" stop-color="#FFAA74"/>
</linearGradient>
<linearGradient id="paint2_linear_36_100" x1="23.1572" y1="170.5" x2="23.1572" y2="188" gradientUnits="userSpaceOnUse">
<stop stop-color="#FFAA74"/>
<stop offset="1" stop-color="#2C3DB2"/>
</linearGradient>
<linearGradient id="paint3_linear_36_100" x1="23.1572" y1="163" x2="23.1572" y2="180.5" gradientUnits="userSpaceOnUse">
<stop stop-color="#886FFA"/>
<stop offset="1" stop-color="#FFAA74"/>
</linearGradient>
<linearGradient id="paint4_linear_36_100" x1="329.157" y1="170.5" x2="329.157" y2="188" gradientUnits="userSpaceOnUse">
<stop stop-color="#FFAA74"/>
<stop offset="1" stop-color="#2C3DB2"/>
</linearGradient>
<linearGradient id="paint5_linear_36_100" x1="329.157" y1="163" x2="329.157" y2="180.5" gradientUnits="userSpaceOnUse">
<stop stop-color="#886FFA"/>
<stop offset="1" stop-color="#FFAA74"/>
</linearGradient>
</defs>
</svg>
